# xmcd
#
# Track frame offsets: 
#        150
#        18547
#        36269
#        53251
#        66591
#        85087
#        98779
#        117434
#        145838
#        165822
#        180974
#        205191
#
# Disc length: 2971 seconds
#
# Revision: 0
# Processed by: cddbd v1.5.2PL0 Copyright (c) Steve Scherf et al.
# Submitted via: ExactAudioCopy v1.2
#
DISCID=940b990c
DTITLE=Big Apple Blues - Brooklyn Blues
DYEAR=2010
DGENRE=Blues
TTITLE0=Too Many Drivers
TTITLE1=Killing Floor
TTITLE2=Brooklyn Swamp
TTITLE3=Honey Hush
TTITLE4=Whole Lotta Lovin
TTITLE5=I Hear You Knocking
TTITLE6=How Many More Years
TTITLE7=Who's on Third (Duvel)?
TTITLE8=It's My Life Baby
TTITLE9=Hate to See You Go
TTITLE10=Everything Is Gonna Be All Right
TTITLE11=Mellow Down Easy
EXTD=
EXTT0=
EXTT1=
EXTT2=
EXTT3=
EXTT4=
EXTT5=
EXTT6=
EXTT7=
EXTT8=
EXTT9=
EXTT10=
EXTT11=
PLAYORDER=
